<svg width="24" height="24" viewBox="0 0 24 24" fill="none" xmlns="http://www.w3.org/2000/svg">
<g id="buy">
<mask id="mask0_1_217" style="mask-type:alpha" maskUnits="userSpaceOnUse" x="0" y="0" width="24" height="24">
<rect id="Rectangle 162" width="24" height="24" fill="#D9D9D9"/>
</mask>
<g mask="url(#mask0_1_217)">
<path id="Rectangle 171" d="M3.30573 12.207C3.63652 9.72614 3.80191 8.4857 4.65038 7.74285C5.49884 7 6.75026 7 9.2531 7H14.7469C17.2497 7 18.5012 7 19.3496 7.74285C20.1981 8.4857 20.3635 9.72614 20.6943 12.207L21.0943 15.207C21.5161 18.3706 21.727 19.9523 20.8306 20.9762C19.9342 22 18.3385 22 15.1469 22H8.8531C5.66155 22 4.06577 22 3.1694 20.9762C2.27302 19.9523 2.48392 18.3706 2.90573 15.207L3.30573 12.207Z" stroke="black" stroke-width="1.8" stroke-linecap="round"/>
<path id="Vector 67" d="M8 6L8.21399 5.03703C8.60833 3.26253 10.1822 2 12 2V2C13.8178 2 15.3917 3.26253 15.786 5.03703L16 6" stroke="black" stroke-width="1.8" stroke-linecap="round" stroke-linejoin="round"/>
<path id="Vector 68" d="M16 11L15.786 11.963C15.3917 13.7375 13.8178 15 12 15V15C10.1822 15 8.60833 13.7375 8.21399 11.963L8 11" stroke="black" stroke-width="1.8" stroke-linecap="round" stroke-linejoin="round"/>
</g>
</g>
</svg>
