<svg width="24" height="24" viewBox="0 0 24 24" fill="none" xmlns="http://www.w3.org/2000/svg">
<g id="Mail">
<path id="Rectangle 4" d="M1.5 10C1.5 7.40728 1.5 6.11091 2.30546 5.30546C3.11091 4.5 4.40728 4.5 7 4.5H17C19.5927 4.5 20.8891 4.5 21.6945 5.30546C22.5 6.11091 22.5 7.40728 22.5 10V14C22.5 16.5927 22.5 17.8891 21.6945 18.6945C20.8891 19.5 19.5927 19.5 17 19.5H7C4.40728 19.5 3.11091 19.5 2.30546 18.6945C1.5 17.8891 1.5 16.5927 1.5 14V10Z" stroke="black" stroke-width="1.8"/>
<path id="Vector 61" d="M19 8L12 13L5 8" stroke="black" stroke-width="1.8" stroke-linecap="round" stroke-linejoin="round"/>
</g>
</svg>
