<svg width="24" height="24" viewBox="0 0 24 24" fill="none" xmlns="http://www.w3.org/2000/svg">
<g id="bascet">
<mask id="mask0_1_202" style="mask-type:alpha" maskUnits="userSpaceOnUse" x="0" y="0" width="24" height="24">
<rect id="Rectangle 162" width="24" height="24" fill="#D9D9D9"/>
</mask>
<g mask="url(#mask0_1_202)">
<rect id="Rectangle 170" x="2" y="8" width="20" height="4" rx="2" stroke="black" stroke-width="1.8" stroke-linecap="round"/>
<path id="Vector 66" d="M3 12L4.67845 20.3922C4.86542 21.3271 5.68625 22 6.63961 22H17.3604C18.3138 22 19.1346 21.3271 19.3216 20.3922L21 12" stroke="black" stroke-width="1.8" stroke-linecap="round" stroke-linejoin="round"/>
<path id="Vector 67" d="M6 8L6.9853 3.56614C7.18865 2.65106 8.00028 2 8.93768 2H15.0623C15.9997 2 16.8113 2.65106 17.0147 3.56614L18 8" stroke="black" stroke-width="1.8" stroke-linecap="round" stroke-linejoin="round"/>
<path id="Vector 68" d="M12 15V19" stroke="black" stroke-width="1.8" stroke-linecap="round" stroke-linejoin="round"/>
<path id="Vector 69" d="M16 15V19" stroke="black" stroke-width="1.8" stroke-linecap="round" stroke-linejoin="round"/>
<path id="Vector 70" d="M8 15V19" stroke="black" stroke-width="1.8" stroke-linecap="round" stroke-linejoin="round"/>
</g>
</g>
</svg>
