<svg width="24" height="24" viewBox="0 0 24 24" fill="none" xmlns="http://www.w3.org/2000/svg">
<g id="Home">
<path id="Rectangle" d="M21 17.5V12.9127C21 10.9913 21 10.0306 20.5933 9.19893C20.1865 8.36729 19.4282 7.77748 17.9115 6.59785L16.9115 5.82008C14.5521 3.98499 13.3724 3.06745 12 3.06745C10.6276 3.06745 9.44787 3.98499 7.08848 5.82007L6.08847 6.59785L6.08847 6.59786C4.57181 7.77748 3.81348 8.3673 3.40674 9.19893C3 10.0306 3 10.9913 3 12.9127V17.5C3 19.3856 3 20.3284 3.58579 20.9142C4.17157 21.5 5.11438 21.5 7 21.5H8.5H15.5H17C18.8856 21.5 19.8284 21.5 20.4142 20.9142C21 20.3284 21 19.3856 21 17.5Z" stroke="black" stroke-width="1.8"/>
<path id="Vector 75" d="M12 21V17" stroke="black" stroke-width="1.8" stroke-linecap="round" stroke-linejoin="round"/>
</g>
</svg>
